<?xml version="1.0" encoding="UTF-8" standalone="no"?>
<svg
   version="1.1"
   width="47.935863"
   height="47.936352"
   viewBox="0 0 47.935863 47.936352"
   id="svg14"
   sodipodi:docname="Waterfall.svg"
   inkscape:version="1.4.3 (1:1.4.3+202512261035+0d15f75042)"
   xmlns:inkscape="http://www.inkscape.org/namespaces/inkscape"
   xmlns:sodipodi="http://sodipodi.sourceforge.net/DTD/sodipodi-0.dtd"
   xmlns="http://www.w3.org/2000/svg"
   xmlns:svg="http://www.w3.org/2000/svg">
  <sodipodi:namedview
     id="namedview7"
     pagecolor="#ffffff"
     bordercolor="#666666"
     borderopacity="1.0"
     inkscape:showpageshadow="2"
     inkscape:pageopacity="0.0"
     inkscape:pagecheckerboard="0"
     inkscape:deskcolor="#d1d1d1"
     inkscape:zoom="6.0847673"
     inkscape:cx="22.84393"
     inkscape:cy="40.675343"
     inkscape:window-width="1191"
     inkscape:window-height="749"
     inkscape:window-x="260"
     inkscape:window-y="55"
     inkscape:window-maximized="0"
     inkscape:current-layer="Waterfall" />
  <defs
     id="defs14">
    <linearGradient
       id="rainbowGradient"
       x1="133.91991"
       y1="109.98614"
       x2="133.91991"
       y2="130.39834"
       gradientTransform="matrix(0.98382303,0,0,1.4328978,-22.283373,-26.191013)"
       gradientUnits="userSpaceOnUse">
      <stop
         offset="0%"
         stop-color="#ff0000"
         id="stop1" />
      <stop
         offset="16%"
         stop-color="#ff7f00"
         id="stop2" />
      <stop
         offset="33%"
         stop-color="#ffff00"
         id="stop3" />
      <stop
         offset="50%"
         stop-color="#00ff00"
         id="stop4" />
      <stop
         offset="66%"
         stop-color="#0000ff"
         id="stop5" />
      <stop
         offset="83%"
         stop-color="#4b0082"
         id="stop6" />
      <stop
         offset="100%"
         stop-color="#9400d3"
         id="stop7" />
    </linearGradient>
  </defs>
  <g
     id="Waterfall"
     transform="translate(-93.238855,-113.93406)">
    <g
       id="g7"
       transform="translate(0.32845821,0.16261186)">
      <circle
         style="fill:#e3e3e3;fill-opacity:1;stroke-width:0.999997"
         cx="116.87833"
         cy="137.73962"
         r="22.917709"
         id="circle1-3" />
      <path
         style="fill:#58595b;stroke-width:0.999997"
         d="m 116.87833,160.65647 c 12.6571,0 22.91771,-10.26004 22.91771,-22.91713 0,-2.17861 -0.31044,-4.28305 -0.87845,-6.27969 -7.98227,-1.16505 -15.34707,-0.96872 -15.84121,0.17419 h -13.60627 c -0.88248,-1.67009 -7.4088,-1.63014 -14.346747,-1.10065 -0.750252,2.26685 -1.162452,4.68749 -1.162452,7.20585 -2.86e-4,12.65739 10.260039,22.91743 22.917419,22.91743 z"
         id="path2-6" />
      <path
         style="fill:#3d3d3e;stroke-width:0.999997"
         d="m 133.71183,146.03234 c -1.43727,-2.91765 -5.26987,-3.08553 -5.84477,-4.7263 -0.44038,-1.25732 1.12969,-5.99452 0.0839,-10.61906 -2.76817,0.0607 -4.63431,0.3918 -4.87462,0.94716 h -13.60628 c -0.43923,-0.8316 -2.27806,-1.23894 -4.86915,-1.37317 1.12537,4.31524 2.56867,9.56699 3.43189,11.39289 1.05379,2.22718 0.5749,5.10026 0.67062,7.92764 0.0644,1.89834 -0.27768,5.84706 -0.28629,9.45546 2.61868,1.04144 5.47165,1.6198 8.46144,1.6198 7.01067,0 13.28202,-3.15105 17.48572,-8.11048 0.0321,-2.8288 -0.0814,-5.35407 -0.65251,-6.51394 z"
         id="path3-1" />
      <path
         style="fill:url(#rainbowGradient);stroke-width:0.999997"
         d="m 116.87833,160.65647 c 4.68692,0 9.04325,-1.40938 12.67377,-3.82398 -0.16126,-1.64884 -0.46078,-3.90993 -1.01413,-6.34034 -1.10209,-4.83868 -3.92832,-7.09029 -4.16805,-8.28811 -0.23974,-1.19782 1.58099,-8.63593 -1.29354,-10.5699 0,0 -5.27015,-0.50909 -13.60627,0 0.81464,2.09006 1.67672,6.1624 2.44335,7.79111 0.76663,1.62898 0.62263,5.12641 0.86235,6.99486 0.20926,1.63071 0.66374,9.90014 0.0639,13.87445 1.31165,0.23342 2.6598,0.36191 4.03871,0.36191 z"
         id="path4-2" />
      <path
         style="fill:#ffffff;stroke-width:0.999997"
         d="m 129.5521,156.83249 c -0.16126,-1.64884 -0.46078,-3.90993 -1.01413,-6.34034 -1.10209,-4.83868 -3.92832,-7.09029 -4.16805,-8.28811 -0.23974,-1.19782 1.58099,-8.63593 -1.29354,-10.5699 0,0 -0.12446,-0.0121 -0.36248,-0.0301 0.50592,1.76122 1.94318,3.07228 1.36828,5.93791 -0.57491,2.86561 -0.64677,5.23737 0.64676,7.3214 1.13601,1.83021 4.43654,7.60944 4.22383,12.35298 0.2015,-0.12561 0.40186,-0.25267 0.59933,-0.38375 z"
         id="path5-8" />
      <path
         style="fill:#ffffff;stroke-width:0.999997"
         d="m 112.77581,146.42038 c 0.20926,1.63073 0.66374,9.90016 0.0639,13.87447 0.70425,0.12534 1.41973,0.2176 2.14439,0.27883 -0.90001,-3.21832 -1.29554,-10.13328 -1.17826,-12.18883 0.14372,-2.51522 -0.50304,-5.46161 -0.93422,-8.04868 -0.38893,-2.33238 -1.654,-5.88932 -2.96996,-8.72648 -0.14373,0.008 -0.28601,0.016 -0.43147,0.0249 0.81464,2.09006 1.67672,6.1624 2.44335,7.79111 0.76663,1.6287 0.62262,5.12613 0.86235,6.99457 z"
         id="path6-9" />
      <path
         style="fill:#ffffff;stroke-width:0.999997"
         d="m 112.58409,132.21536 c 0.82641,1.18574 2.55113,4.23992 2.623,8.47984 0.75457,-2.65893 0.86235,-6.14429 -2.623,-8.47984 z"
         id="path7-9" />
      <path
         style="fill:#ffffff;stroke-width:0.999997"
         d="m 116.17723,132.8262 c 0.7195,1.18574 2.22086,4.23992 2.28325,8.47984 0.65682,-2.65894 0.75054,-6.1443 -2.28325,-8.47984 z"
         id="path8-3" />
      <path
         style="fill:#ffffff;stroke-width:0.999997"
         d="m 119.21849,132.53874 c 0.60968,1.00493 1.88195,3.59315 1.93483,7.1863 0.55681,-2.25333 0.63614,-5.20718 -1.93483,-7.1863 z"
         id="path9-1" />
      <path
         style="fill:#ffffff;stroke-width:0.999997"
         d="m 115.01881,142.49178 c 0.0896,2.15589 1.69079,2.69486 2.63277,6.53954 0.94198,3.84468 -0.54673,4.74296 0,7.22224 -0.99832,-2.91046 -0.13597,-4.95855 -0.96239,-7.18631 -0.82643,-2.22776 -1.79571,-4.77889 -1.67038,-6.57547 z"
         id="path10-9" />
      <path
         style="fill:#ffffff;stroke-width:0.999997"
         d="m 118.70251,145.19239 c 0.0661,1.97393 1.24926,2.4672 1.94519,5.98677 0.69621,3.51957 -0.40387,4.34169 0,6.61169 -0.73732,-2.66468 -0.10036,-4.53944 -0.71086,-6.57892 -0.61056,-2.03947 -1.32718,-4.37444 -1.23433,-6.01954 z"
         id="path11-4" />
      <path
         style="fill:#ffffff;stroke-width:0.999997"
         d="m 120.25446,141.65386 c 0.15322,1.96905 1.35707,2.40942 2.20792,5.89478 0.85115,3.48536 -0.21156,4.35547 0.29234,6.60508 -0.85459,-2.62904 -0.30096,-4.53025 -1.00091,-6.54069 -0.69994,-2.01044 -1.51919,-4.31207 -1.49935,-5.95917 z"
         id="path12-7" />
      <path
         style="fill:#ffffff;stroke-width:0.999997"
         d="m 123.0804,143.66861 c 0.15724,1.96847 1.36166,2.40654 2.21971,5.89019 0.85806,3.48364 -0.20265,4.35576 0.30556,6.60451 -0.85977,-2.62761 -0.30987,-4.52969 -1.01412,-6.53869 -0.70398,-2.009 -1.52753,-4.30862 -1.51115,-5.95601 z"
         id="path13-8" />
    </g>
  </g>
  <g
     id="Layer_1"
     transform="translate(-93.238855,-113.93406)" />
</svg>
