<?xml version="1.0" encoding="UTF-8" standalone="no"?>
<svg
   width="48"
   height="48"
   viewBox="0 0 48 48"
   version="1.1"
   id="svg5"
   sodipodi:docname="Wiggle.svg"
   inkscape:version="1.4.3 (1:1.4.3+202512261035+0d15f75042)"
   xmlns:inkscape="http://www.inkscape.org/namespaces/inkscape"
   xmlns:sodipodi="http://sodipodi.sourceforge.net/DTD/sodipodi-0.dtd"
   xmlns="http://www.w3.org/2000/svg"
   xmlns:svg="http://www.w3.org/2000/svg">
  <defs
     id="defs5" />
  <sodipodi:namedview
     id="namedview5"
     pagecolor="#ffffff"
     bordercolor="#666666"
     borderopacity="1.0"
     inkscape:showpageshadow="2"
     inkscape:pageopacity="0.0"
     inkscape:pagecheckerboard="0"
     inkscape:deskcolor="#d1d1d1"
     inkscape:zoom="6.0766989"
     inkscape:cx="54.141238"
     inkscape:cy="37.43809"
     inkscape:window-width="1854"
     inkscape:window-height="1011"
     inkscape:window-x="66"
     inkscape:window-y="32"
     inkscape:window-maximized="1"
     inkscape:current-layer="g5" />
  <g
     id="g5"
     transform="translate(0.81454563,-1.3381815)">
    <rect
       x="5.1854544"
       y="8.3381815"
       width="36"
       height="34"
       rx="3"
       fill="#ffffff"
       stroke="#333333"
       stroke-width="2.5"
       id="rect1" />
    <path
       d="m 8.6020946,28.684222 c 2.5266024,0 2.5266024,7.852597 5.0532034,7.852597 2.526602,0 2.526602,-8.974397 5.053204,-8.974397 2.526601,0 2.526601,10.096197 5.053203,10.096197 2.526601,0 2.526601,-7.852598 5.053204,-7.852598 2.526602,0 2.526602,5.608998 5.053203,5.608998"
       fill="none"
       stroke="#333333"
       stroke-width="2.5"
       stroke-linecap="round"
       stroke-linejoin="round"
       id="path3-5"
       style="stroke-width:2.00001;stroke-dasharray:none" />
    <path
       d="m 10.640804,21.27018 c 2.526602,0 2.526602,7.852597 5.053203,7.852597 2.526602,0 2.526602,-8.974397 5.053204,-8.974397 2.526601,0 2.526601,10.096197 5.053203,10.096197 2.526601,0 2.526601,-7.852598 5.053204,-7.852598 2.526602,0 2.526602,5.608998 5.053203,5.608998"
       fill="none"
       stroke="#333333"
       stroke-width="2.5"
       stroke-linecap="round"
       stroke-linejoin="round"
       id="path3-5-1"
       style="stroke-width:2.00001;stroke-dasharray:none" />
    <path
       d="m 12.527207,14.48523 c 2.526602,0 2.526602,7.852597 5.053203,7.852597 2.526602,0 2.526602,-8.974397 5.053204,-8.974397 2.526601,0 2.526601,10.096197 5.053203,10.096197 2.526601,0 2.526601,-7.852598 5.053204,-7.852598 2.526602,0 2.526602,5.608998 5.053203,5.608998"
       fill="none"
       stroke="#333333"
       stroke-width="2.5"
       stroke-linecap="round"
       stroke-linejoin="round"
       id="path3-5-7"
       style="stroke-width:2.00001;stroke-dasharray:none" />
  </g>
</svg>
